<?xml version="1.0" encoding="utf-8"?>
<!DOCTYPE svg PUBLIC "-//W3C//DTD SVG 1.1//EN" "http://www.w3.org/Graphics/SVG/1.1/DTD/svg11.dtd">
<svg version="1.1" baseProfile="full" xmlns="http://www.w3.org/2000/svg" height="280" width="500" x="0px" y="0px" viewBox="0 0 500 280">
     <style>
        .text {
            font-family: monospace;
            font-size: 15px;
        }
        .label {
            font-family: sans-serif;
            font-size: 18px;
            font-weight: bold;
        }
        .bg {
            fill: #fff;
        }
        .line {
            stroke: #000;
            fill: none;
        }
        .fill {
            fill: #000;
        }
     </style>
     <path d="M 0 0 L 0 280 L 500 280 L 500 0 L 0 0" class="bg" />

     <path d="M 90 70 L 80 70 L 80 90 L 90 90" class="line" />
     <text x="15" y="85" class="text">Header</text>

     <path d="M 90 108 L 80 108 L 80 175 L 90 175" class="line" />
     <text x="3" y="145" class="text">Details</text>

     <path d="M 90 210 Q 10 210 10 155" class="line" />
     <path d="M 10 155 L 5 165 L 15 165 L 10 155" class="line fill" />

     <text x="60" y="260" class="label">Signature of concatenated Details</text>

     <path d="M 100 60 L 100 55 L 120 55 L 120 60" class="line" />
     <path d="M 110 45 L 110 55" class="line" />
     <text x="100" y="42" class="text">Length</text>

     <path d="M 130 60 L 130 55 L 440 55 L 440 60" class="line" />
     <path d="M 180 45 L 160 55" class="line" />
     <text x="180" y="42" class="text">String (e.g "aim" is 3 characters)</text>

     <text x="100" y="75" class="text">03: aim</text>
     <text x="100" y="95" class="text">11: hmac-concat</text>
     <text x="100" y="115" class="text">05: ident</text>
     <text x="100" y="135" class="text">31: fpw_auth=text%40cb%2elocal@email</text>
     <text x="100" y="155" class="text">13: password-hash</text>
     <text x="100" y="175" class="text">62: &lt;password hash bytes&gt; </text>
     <text x="100" y="195" class="text">07: end-sig</text>
     <text x="100" y="215" class="text">32: &lt;signature bytes&gt;</text>

</svg>
