<?xml version="1.0" encoding="utf-8"?>
<!DOCTYPE svg PUBLIC "-//W3C//DTD SVG 1.1//EN" "http://www.w3.org/Graphics/SVG/1.1/DTD/svg11.dtd">
<svg version="1.1" baseProfile="full" xmlns="http://www.w3.org/2000/svg" height="210" width="460" x="0px" y="0px" viewBox="0 0 460 210">
     <style>
        .text {
            font-family: monospace;
            font-size: 15px;
        }
        .label {
            font-family: sans-serif;
            font-size: 18px;
            font-weight: bold;
        }
        .bg {
            fill: #fff;
        }
        .line {
            stroke: #000;
            fill: none;
        }
        .fill {
            fill: #000;
        }
     </style>
     <path d="M 0 0 L 0 210 L 460 210 L 460 0 L 0 0" class="bg" />

     <path d="M 90 35 L 80 35 L 80 55 L 90 55" class="line" />
     <text x="15" y="50" class="text">Header</text>

     <path d="M 90 73 L 80 73 L 80 140 L 90 140" class="line" />
     <text x="3" y="110" class="text">Details</text>

     <path d="M 90 175 Q 3 180 10 120" class="line" />
     <path d="M 10 120 L 5 130 L 15 130 L 10 120" class="line fill" />

     <text x="100" y="45" class="text">03: aim</text>
     <text x="100" y="65" class="text">11: hmac-concat</text>
     <text x="100" y="85" class="text">05: ident</text>
     <text x="100" y="105" class="text">31: fpw_auth=text%40cb%2elocal@email</text>
     <text x="100" y="125" class="text">13: password-hash</text>
     <text x="100" y="145" class="text">62: &lt;password hash bytes&gt; </text>
     <text x="100" y="165" class="text">07: end-sig</text>
     <text x="100" y="185" class="text">32: &lt;signature bytes&gt;</text>

     <text x="60" y="20" class="label">Signature of concatenated Details</text>

</svg>
